<svg xmlns="http://www.w3.org/2000/svg" width="860" height="460" viewBox="0 0 860 460" role="img" aria-labelledby="title desc">
<title id="title">Dependency-Version Age Buckets Split by cargo-vet Coverage</title>
<desc id="desc">Unique dependency versions grouped by age at analysis time, split into covered and not covered counts.</desc>
<rect width="100%" height="100%" fill="#ffffff"/>
<text x="76" y="30" font-family="Arial, sans-serif" font-size="22" font-weight="700" fill="#27272a">Dependency-Version Age by Coverage</text>
<text x="76" y="52" font-family="Arial, sans-serif" font-size="13" fill="#71717a">Dependency-version count</text>
<g font-family="Arial, sans-serif"><line x1="76" y1="64" x2="828" y2="64" stroke="#d4d4d8"/><text x="64" y="68" text-anchor="end" font-size="13" fill="#71717a">100</text>
<line x1="76" y1="121.19999999999999" x2="828" y2="121.19999999999999" stroke="#d4d4d8"/><text x="64" y="125.19999999999999" text-anchor="end" font-size="13" fill="#71717a">80</text>
<line x1="76" y1="178.4" x2="828" y2="178.4" stroke="#d4d4d8"/><text x="64" y="182.4" text-anchor="end" font-size="13" fill="#71717a">60</text>
<line x1="76" y1="235.6" x2="828" y2="235.6" stroke="#d4d4d8"/><text x="64" y="239.6" text-anchor="end" font-size="13" fill="#71717a">40</text>
<line x1="76" y1="292.8" x2="828" y2="292.8" stroke="#d4d4d8"/><text x="64" y="296.8" text-anchor="end" font-size="13" fill="#71717a">20</text>
<line x1="76" y1="350" x2="828" y2="350" stroke="#d4d4d8"/><text x="64" y="354" text-anchor="end" font-size="13" fill="#71717a">0</text></g>
<line x1="76" y1="64" x2="76" y2="350" stroke="#27272a"/>
<line x1="76" y1="350" x2="828" y2="350" stroke="#27272a"/>
<g><rect x="103.07" y="261.34" width="96.26" height="60.06" fill="#64748b"><title>&lt;30 days: 21 not covered</title></rect><rect x="103.07" y="321.40" width="96.26" height="28.60" fill="#2563eb"><title>&lt;30 days: 10 covered</title></rect><text x="151.20" y="398" text-anchor="middle" font-size="12" fill="#71717a">&lt;30 days</text><text x="151.20" y="253.33999999999997" text-anchor="middle" font-size="12" fill="#71717a">31</text></g>
<g><rect x="253.47" y="175.54" width="96.26" height="120.12" fill="#64748b"><title>30-89 days: 42 not covered</title></rect><rect x="253.47" y="295.66" width="96.26" height="54.34" fill="#2563eb"><title>30-89 days: 19 covered</title></rect><text x="301.60" y="398" text-anchor="middle" font-size="12" fill="#71717a">30-89 days</text><text x="301.60" y="167.53999999999996" text-anchor="middle" font-size="12" fill="#71717a">61</text></g>
<g><rect x="403.87" y="218.44" width="96.26" height="48.62" fill="#64748b"><title>90-179 days: 17 not covered</title></rect><rect x="403.87" y="267.06" width="96.26" height="82.94" fill="#2563eb"><title>90-179 days: 29 covered</title></rect><text x="452.00" y="398" text-anchor="middle" font-size="12" fill="#71717a">90-179 days</text><text x="452.00" y="210.44" text-anchor="middle" font-size="12" fill="#71717a">46</text></g>
<g><rect x="554.27" y="198.42" width="96.26" height="57.20" fill="#64748b"><title>180-364 days: 20 not covered</title></rect><rect x="554.27" y="255.62" width="96.26" height="94.38" fill="#2563eb"><title>180-364 days: 33 covered</title></rect><text x="602.40" y="398" text-anchor="middle" font-size="12" fill="#71717a">180-364 days</text><text x="602.40" y="190.42000000000002" text-anchor="middle" font-size="12" fill="#71717a">53</text></g>
<g><rect x="704.67" y="92.60" width="96.26" height="102.96" fill="#64748b"><title>&gt;=365 days: 36 not covered</title></rect><rect x="704.67" y="195.56" width="96.26" height="154.44" fill="#2563eb"><title>&gt;=365 days: 54 covered</title></rect><text x="752.80" y="398" text-anchor="middle" font-size="12" fill="#71717a">&gt;=365 days</text><text x="752.80" y="84.60000000000001" text-anchor="middle" font-size="12" fill="#71717a">90</text></g>
<rect x="352" y="426" width="12" height="12" fill="#2563eb"/><text x="372" y="436" font-family="Arial, sans-serif" font-size="12" fill="#71717a">Covered</text>
<rect x="448" y="426" width="12" height="12" fill="#64748b"/><text x="468" y="436" font-family="Arial, sans-serif" font-size="12" fill="#71717a">Not covered</text>
</svg>
